<svg width="40" height="42" viewBox="0 0 40 42" fill="none" xmlns="http://www.w3.org/2000/svg">
<path d="M4 18H10V20H4V18ZM4 22H14V24H4V22Z" fill="#F8F8F8"/>
<path d="M36.6667 2H3.33333C2.44968 2.00132 1.60261 2.35294 0.977771 2.97777C0.352936 3.60261 0.0013225 4.44968 0 5.33333V38.6667C0.0013225 39.5503 0.352936 40.3974 0.977771 41.0222C1.60261 41.6471 2.44968 41.9987 3.33333 42H36.6667C37.5503 41.9987 38.3974 41.6471 39.0222 41.0222C39.6471 40.3974 39.9987 39.5503 40 38.6667V5.33333C39.9987 4.44968 39.6471 3.60261 39.0222 2.97777C38.3974 2.35294 37.5503 2.00132 36.6667 2ZM23.3333 5.33333V12H16.6667V5.33333H23.3333ZM3.33333 38.6667V5.33333H13.3333V15.3333H26.6667V5.33333H36.6667L36.6683 38.6667H3.33333Z" fill="#F8F8F8"/>
</svg>
