<svg width="40" height="40" viewBox="0 0 40 40" fill="none" xmlns="http://www.w3.org/2000/svg">
<g clip-path="url(#clip0_22_18)">
<path d="M22 18H35.9C35.4067 14.3333 33.88 11.2267 31.32 8.68C28.7733 6.13333 25.6667 4.60667 22 4.1M18 35.9V4.1C14 4.60667 10.6667 6.36667 8 9.38C5.33333 12.3933 4 15.9333 4 20C4 24.0667 5.33333 27.6067 8 30.62C10.6667 33.6467 14 35.4067 18 35.9ZM22 35.9C25.6667 35.4333 28.7867 33.92 31.36 31.36C33.92 28.7867 35.4333 25.6667 35.9 22H22M20 40C17.24 40 14.64 39.4733 12.2 38.42C9.77333 37.38 7.66 35.96 5.86 34.16C4.06 32.36 2.63333 30.24 1.58 27.8C0.526667 25.3733 0 22.7733 0 20C0 17.2267 0.526667 14.6267 1.58 12.2C2.63333 9.77333 4.06 7.66 5.86 5.86C7.66 4.06 9.77333 2.63333 12.2 1.58C14.64 0.526667 17.24 0 20 0C22.76 0 25.3533 0.526667 27.78 1.58C30.1933 2.63333 32.3067 4.06667 34.12 5.88C35.9467 7.69333 37.38 9.80667 38.42 12.22C39.4733 14.6467 40 17.24 40 20C40 22.7333 39.4733 25.32 38.42 27.76C37.38 30.1867 35.96 32.3067 34.16 34.12C32.36 35.9467 30.24 37.38 27.8 38.42C25.3733 39.4733 22.7733 40 20 40Z" fill="#F8F8F8"/>
</g>
<defs>
<clipPath id="clip0_22_18">
<rect width="40" height="40" fill="white"/>
</clipPath>
</defs>
</svg>
