<svg width="46" height="57" viewBox="0 0 46 57" fill="none" xmlns="http://www.w3.org/2000/svg">
<path d="M33.2842 43.3207C34.345 43.3207 35.3625 43.7422 36.1126 44.4923C36.8628 45.2425 37.2842 46.2599 37.2842 47.3207C37.2842 48.3816 36.8628 49.399 36.1126 50.1492C35.3625 50.8993 34.345 51.3207 33.2842 51.3207C32.2233 51.3207 31.2059 50.8993 30.4558 50.1492C29.7056 49.399 29.2842 48.3816 29.2842 47.3207C29.2842 45.1007 31.0642 43.3207 33.2842 43.3207ZM1.28418 11.3207H7.82418L9.70418 15.3207H39.2842C39.8146 15.3207 40.3233 15.5315 40.6984 15.9065C41.0735 16.2816 41.2842 16.7903 41.2842 17.3207C41.2842 17.6607 41.1842 18.0007 41.0442 18.3207L33.8842 31.2607C33.2042 32.4807 31.8842 33.3207 30.3842 33.3207H15.4842L13.6842 36.5807L13.6242 36.8207C13.6242 36.9533 13.6769 37.0805 13.7706 37.1743C13.8644 37.2681 13.9916 37.3207 14.1242 37.3207H37.2842V41.3207H13.2842C12.2233 41.3207 11.2059 40.8993 10.4558 40.1492C9.70561 39.399 9.28418 38.3816 9.28418 37.3207C9.28418 36.6207 9.46418 35.9607 9.76418 35.4007L12.4842 30.5007L5.28418 15.3207H1.28418V11.3207ZM13.2842 43.3207C14.345 43.3207 15.3625 43.7422 16.1126 44.4923C16.8628 45.2425 17.2842 46.2599 17.2842 47.3207C17.2842 48.3816 16.8628 49.399 16.1126 50.1492C15.3625 50.8993 14.345 51.3207 13.2842 51.3207C12.2233 51.3207 11.2059 50.8993 10.4558 50.1492C9.70561 49.399 9.28418 48.3816 9.28418 47.3207C9.28418 45.1007 11.0642 43.3207 13.2842 43.3207ZM31.2842 29.3207L36.8442 19.3207H11.5642L16.2842 29.3207H31.2842Z" fill="#F8F8F8"/>
</svg>
