<svg width="40" height="41" viewBox="0 0 40 41" fill="none" xmlns="http://www.w3.org/2000/svg">
<path d="M39.9571 30.1435L35.9429 10.5913C35.7883 9.83846 35.4313 9.17016 34.9288 8.69273C34.4263 8.2153 33.8071 7.95615 33.1696 7.95652H21.4286V4.47826C21.4286 3.55577 21.1276 2.67106 20.5917 2.01876C20.0559 1.36646 19.3292 1 18.5714 1H11.4286C10.6708 1 9.94409 1.36646 9.40827 2.01876C8.87245 2.67106 8.57143 3.55577 8.57143 4.47826V7.95652H6.83036C6.19292 7.95615 5.57369 8.2153 5.07118 8.69273C4.56866 9.17016 4.21172 9.83846 4.05714 10.5913L0.0428571 30.1435C0.0144638 30.2814 7.0736e-05 30.423 0 30.5652V37.5217C0 38.4442 0.301019 39.3289 0.836838 39.9812C1.37266 40.6335 2.09938 41 2.85714 41H37.1429C37.9006 41 38.6273 40.6335 39.1632 39.9812C39.699 39.3289 40 38.4442 40 37.5217V30.5652C39.9999 30.423 39.9855 30.2814 39.9571 30.1435ZM11.4286 4.47826H18.5714V7.95652H11.4286V4.47826ZM6.83036 11.4348H33.1696L36.7411 28.8261H3.25893L6.83036 11.4348ZM2.85714 37.5217V32.3043H37.1429V37.5217H2.85714ZM8.57143 16.6522C8.57143 16.1909 8.72194 15.7486 8.98985 15.4224C9.25776 15.0963 9.62112 14.913 10 14.913H12.8571C13.236 14.913 13.5994 15.0963 13.8673 15.4224C14.1352 15.7486 14.2857 16.1909 14.2857 16.6522C14.2857 17.1134 14.1352 17.5558 13.8673 17.8819C13.5994 18.2081 13.236 18.3913 12.8571 18.3913H10C9.62112 18.3913 9.25776 18.2081 8.98985 17.8819C8.72194 17.5558 8.57143 17.1134 8.57143 16.6522ZM17.1429 16.6522C17.1429 16.1909 17.2934 15.7486 17.5613 15.4224C17.8292 15.0963 18.1925 14.913 18.5714 14.913H21.4286C21.8075 14.913 22.1708 15.0963 22.4387 15.4224C22.7066 15.7486 22.8571 16.1909 22.8571 16.6522C22.8571 17.1134 22.7066 17.5558 22.4387 17.8819C22.1708 18.2081 21.8075 18.3913 21.4286 18.3913H18.5714C18.1925 18.3913 17.8292 18.2081 17.5613 17.8819C17.2934 17.5558 17.1429 17.1134 17.1429 16.6522ZM25.7143 16.6522C25.7143 16.1909 25.8648 15.7486 26.1327 15.4224C26.4006 15.0963 26.764 14.913 27.1429 14.913H30C30.3789 14.913 30.7422 15.0963 31.0102 15.4224C31.2781 15.7486 31.4286 16.1909 31.4286 16.6522C31.4286 17.1134 31.2781 17.5558 31.0102 17.8819C30.7422 18.2081 30.3789 18.3913 30 18.3913H27.1429C26.764 18.3913 26.4006 18.2081 26.1327 17.8819C25.8648 17.5558 25.7143 17.1134 25.7143 16.6522ZM8.57143 23.6087C8.57143 23.1474 8.72194 22.7051 8.98985 22.3789C9.25776 22.0528 9.62112 21.8696 10 21.8696H12.8571C13.236 21.8696 13.5994 22.0528 13.8673 22.3789C14.1352 22.7051 14.2857 23.1474 14.2857 23.6087C14.2857 24.0699 14.1352 24.5123 13.8673 24.8384C13.5994 25.1646 13.236 25.3478 12.8571 25.3478H10C9.62112 25.3478 9.25776 25.1646 8.98985 24.8384C8.72194 24.5123 8.57143 24.0699 8.57143 23.6087ZM17.1429 23.6087C17.1429 23.1474 17.2934 22.7051 17.5613 22.3789C17.8292 22.0528 18.1925 21.8696 18.5714 21.8696H21.4286C21.8075 21.8696 22.1708 22.0528 22.4387 22.3789C22.7066 22.7051 22.8571 23.1474 22.8571 23.6087C22.8571 24.0699 22.7066 24.5123 22.4387 24.8384C22.1708 25.1646 21.8075 25.3478 21.4286 25.3478H18.5714C18.1925 25.3478 17.8292 25.1646 17.5613 24.8384C17.2934 24.5123 17.1429 24.0699 17.1429 23.6087ZM25.7143 23.6087C25.7143 23.1474 25.8648 22.7051 26.1327 22.3789C26.4006 22.0528 26.764 21.8696 27.1429 21.8696H30C30.3789 21.8696 30.7422 22.0528 31.0102 22.3789C31.2781 22.7051 31.4286 23.1474 31.4286 23.6087C31.4286 24.0699 31.2781 24.5123 31.0102 24.8384C30.7422 25.1646 30.3789 25.3478 30 25.3478H27.1429C26.764 25.3478 26.4006 25.1646 26.1327 24.8384C25.8648 24.5123 25.7143 24.0699 25.7143 23.6087Z" fill="#F8F8F8"/>
</svg>
