<svg width="43" height="40" viewBox="0 0 43 40" fill="none" xmlns="http://www.w3.org/2000/svg">
<path d="M42.737 36.4798C40.1979 31.8605 36.2331 28.2612 31.4809 26.2613C33.8442 24.4241 35.5898 21.8626 36.4706 18.9398C37.3514 16.017 37.3227 12.8809 36.3885 9.97598C35.4544 7.07101 33.6622 4.54435 31.2657 2.7539C28.8693 0.96346 25.9901 0 23.0361 0C20.0821 0 17.2029 0.96346 14.8065 2.7539C12.41 4.54435 10.6178 7.07101 9.68364 9.97598C8.74949 12.8809 8.72078 16.017 9.60158 18.9398C10.4824 21.8626 12.228 24.4241 14.5913 26.2613C9.83904 28.2612 5.87427 31.8605 3.33518 36.4798C3.17785 36.742 3.07299 37.0344 3.02683 37.3395C2.98068 37.6446 2.99417 37.9561 3.0665 38.2557C3.13884 38.5553 3.26854 38.8367 3.4479 39.0833C3.62727 39.3299 3.85262 39.5365 4.11058 39.691C4.36853 39.8455 4.65382 39.9447 4.94948 39.9826C5.24514 40.0205 5.54513 39.9964 5.83163 39.9117C6.11812 39.8271 6.38527 39.6835 6.6172 39.4897C6.84912 39.2959 7.04107 39.0557 7.18166 38.7834C10.5374 32.771 16.4636 29.185 23.0361 29.185C29.6086 29.185 35.5348 32.7729 38.8905 38.7834C39.1952 39.2912 39.6784 39.6563 40.2381 39.8015C40.7977 39.9468 41.3899 39.8607 41.8894 39.5615C42.3889 39.2623 42.7567 38.7736 42.9148 38.1985C43.073 37.6234 43.0092 37.007 42.737 36.4798ZM13.406 14.5954C13.406 12.6211 13.9708 10.6911 15.029 9.04947C16.0871 7.40788 17.5912 6.12841 19.3508 5.37287C21.1105 4.61733 23.0468 4.41964 24.9148 4.80482C26.7829 5.18999 28.4988 6.14072 29.8456 7.53678C31.1924 8.93284 32.1096 10.7115 32.4811 12.6479C32.8527 14.5843 32.662 16.5914 31.9331 18.4155C31.2042 20.2395 29.9699 21.7985 28.3863 22.8954C26.8026 23.9923 24.9407 24.5777 23.0361 24.5777C20.4829 24.5747 18.0352 23.522 16.2298 21.6506C14.4245 19.7792 13.409 17.2419 13.406 14.5954Z" fill="#F8F8F8"/>
</svg>
