<svg width="438" height="161" viewBox="0 0 438 161" fill="none" xmlns="http://www.w3.org/2000/svg">
<mask id="path-1-outside-1_23_144" maskUnits="userSpaceOnUse" x="30" y="16" width="60" height="137" fill="black">
<rect fill="white" x="30" y="16" width="60" height="137"/>
<path d="M32.24 112.52H38.16V127.72H88V135H38.16V150.28H32.24V112.52ZM32.24 60.5987H88V67.8787H62.72L62.72 96.2787H88V103.559H32.24V96.2787H56.72L56.72 67.8787H32.24V60.5987ZM38.16 40.8881H56.8V20.5681H62.8V40.8881H82L82 18.1681H88L88 48.1681H32.16V18.1681H38.16V40.8881Z"/>
</mask>
<path d="M32.24 112.52V110.52H30.24V112.52H32.24ZM38.16 112.52H40.16V110.52H38.16V112.52ZM38.16 127.72H36.16V129.72H38.16V127.72ZM88 127.72H90V125.72H88V127.72ZM88 135V137H90V135H88ZM38.16 135V133H36.16V135H38.16ZM38.16 150.28V152.28H40.16V150.28H38.16ZM32.24 150.28H30.24V152.28H32.24V150.28ZM32.24 114.52H38.16V110.52H32.24V114.52ZM36.16 112.52V127.72H40.16V112.52H36.16ZM38.16 129.72H88V125.72H38.16V129.72ZM86 127.72V135H90V127.72H86ZM88 133H38.16V137H88V133ZM36.16 135V150.28H40.16V135H36.16ZM38.16 148.28H32.24V152.28H38.16V148.28ZM34.24 150.28V112.52H30.24L30.24 150.28H34.24ZM32.24 60.5987V58.5987H30.24L30.24 60.5987H32.24ZM88 60.5987H90V58.5987H88V60.5987ZM88 67.8787V69.8787H90V67.8787H88ZM62.72 67.8787V65.8787H60.72V67.8787H62.72ZM62.72 96.2787H60.72V98.2787H62.72V96.2787ZM88 96.2787H90V94.2787H88V96.2787ZM88 103.559V105.559H90V103.559H88ZM32.24 103.559H30.24V105.559H32.24V103.559ZM32.24 96.2787V94.2787H30.24V96.2787H32.24ZM56.72 96.2787V98.2787H58.72V96.2787H56.72ZM56.72 67.8787H58.72V65.8787H56.72V67.8787ZM32.24 67.8787H30.24V69.8787H32.24V67.8787ZM32.24 62.5987H88V58.5987H32.24V62.5987ZM86 60.5987V67.8787H90V60.5987H86ZM88 65.8787H62.72V69.8787H88V65.8787ZM60.72 67.8787L60.72 96.2787H64.72V67.8787H60.72ZM62.72 98.2787H88V94.2787H62.72V98.2787ZM86 96.2787V103.559H90V96.2787H86ZM88 101.559H32.24V105.559H88V101.559ZM34.24 103.559V96.2787H30.24V103.559H34.24ZM32.24 98.2787H56.72V94.2787H32.24V98.2787ZM58.72 96.2787L58.72 67.8787H54.72L54.72 96.2787H58.72ZM56.72 65.8787H32.24V69.8787H56.72V65.8787ZM34.24 67.8787V60.5987H30.24V67.8787H34.24ZM38.16 40.8881H36.16V42.8881H38.16V40.8881ZM56.8 40.8881V42.8881H58.8V40.8881H56.8ZM56.8 20.5681V18.5681H54.8V20.5681H56.8ZM62.8 20.5681H64.8V18.5681H62.8V20.5681ZM62.8 40.8881H60.8V42.8881H62.8V40.8881ZM82 40.8881V42.8881H84V40.8881H82ZM82 18.1681V16.1681H80V18.1681H82ZM88 18.1681H90V16.1681H88V18.1681ZM88 48.1681V50.1681H90V48.1681H88ZM32.16 48.1681H30.16V50.1681H32.16V48.1681ZM32.16 18.1681V16.1681H30.16V18.1681H32.16ZM38.16 18.1681H40.16V16.1681H38.16V18.1681ZM38.16 42.8881H56.8V38.8881H38.16V42.8881ZM58.8 40.8881V20.5681H54.8V40.8881H58.8ZM56.8 22.5681H62.8V18.5681H56.8V22.5681ZM60.8 20.5681V40.8881H64.8L64.8 20.5681H60.8ZM62.8 42.8881H82V38.8881H62.8V42.8881ZM84 40.8881L84 18.1681H80L80 40.8881H84ZM82 20.1681H88V16.1681H82V20.1681ZM86 18.1681L86 48.1681H90L90 18.1681H86ZM88 46.1681H32.16V50.1681H88V46.1681ZM34.16 48.1681V18.1681H30.16V48.1681H34.16ZM32.16 20.1681H38.16V16.1681H32.16V20.1681ZM36.16 18.1681V40.8881H40.16V18.1681H36.16Z" fill="#F8F8F8" mask="url(#path-1-outside-1_23_144)"/>
<mask id="path-3-outside-2_23_144" maskUnits="userSpaceOnUse" x="108" y="9" width="322" height="144" fill="black">
<rect fill="white" x="108" y="9" width="322" height="144"/>
<path d="M128.6 26.4V73H179.4V88H128.6V136H185.4V151H110.4V11.4H185.4V26.4H128.6ZM286.339 151L253.139 94H231.139V151H212.939V11.6H257.939C268.472 11.6 277.339 13.4 284.539 17C291.872 20.6 297.339 25.4667 300.939 31.6C304.539 37.7333 306.339 44.7333 306.339 52.6C306.339 62.2 303.539 70.6667 297.939 78C292.472 85.3333 284.206 90.2 273.139 92.6L308.139 151H286.339ZM231.139 79.4H257.939C267.806 79.4 275.206 77 280.139 72.2C285.072 67.2667 287.539 60.7333 287.539 52.6C287.539 44.3333 285.072 37.9333 280.139 33.4C275.339 28.8667 267.939 26.6 257.939 26.6H231.139V79.4ZM427.819 52.4C427.819 64 423.819 73.6667 415.819 81.4C407.952 89 395.885 92.8 379.619 92.8H352.819V151H334.619V11.6H379.619C395.352 11.6 407.285 15.4 415.419 23C423.685 30.6 427.819 40.4 427.819 52.4ZM379.619 77.8C389.752 77.8 397.219 75.6 402.019 71.2C406.819 66.8 409.219 60.5333 409.219 52.4C409.219 35.2 399.352 26.6 379.619 26.6H352.819V77.8H379.619Z"/>
</mask>
<path d="M128.6 26.4V24.4H126.6V26.4H128.6ZM128.6 73H126.6V75H128.6V73ZM179.4 73H181.4V71H179.4V73ZM179.4 88V90H181.4V88H179.4ZM128.6 88V86H126.6V88H128.6ZM128.6 136H126.6V138H128.6V136ZM185.4 136H187.4V134H185.4V136ZM185.4 151V153H187.4V151H185.4ZM110.4 151H108.4V153H110.4V151ZM110.4 11.4V9.4H108.4V11.4H110.4ZM185.4 11.4H187.4V9.4H185.4V11.4ZM185.4 26.4V28.4H187.4V26.4H185.4ZM126.6 26.4V73H130.6V26.4H126.6ZM128.6 75H179.4V71H128.6V75ZM177.4 73V88H181.4V73H177.4ZM179.4 86H128.6V90H179.4V86ZM126.6 88V136H130.6V88H126.6ZM128.6 138H185.4V134H128.6V138ZM183.4 136V151H187.4V136H183.4ZM185.4 149H110.4V153H185.4V149ZM112.4 151V11.4H108.4V151H112.4ZM110.4 13.4H185.4V9.4H110.4V13.4ZM183.4 11.4V26.4H187.4V11.4H183.4ZM185.4 24.4H128.6V28.4H185.4V24.4ZM286.339 151L284.611 152.007L285.189 153H286.339V151ZM253.139 94L254.867 92.9934L254.289 92H253.139V94ZM231.139 94V92H229.139V94H231.139ZM231.139 151V153H233.139V151H231.139ZM212.939 151H210.939V153H212.939V151ZM212.939 11.6V9.59999H210.939V11.6H212.939ZM284.539 17L283.645 18.7889L283.651 18.7921L283.658 18.7953L284.539 17ZM297.939 78L296.35 76.7862L296.343 76.7954L296.336 76.8047L297.939 78ZM273.139 92.6L272.715 90.6454L269.99 91.2364L271.424 93.6281L273.139 92.6ZM308.139 151V153H311.669L309.855 149.972L308.139 151ZM231.139 79.4H229.139V81.4H231.139V79.4ZM280.139 72.2L281.534 73.6334L281.544 73.6239L281.553 73.6142L280.139 72.2ZM280.139 33.4L278.766 34.854L278.776 34.8634L278.786 34.8727L280.139 33.4ZM231.139 26.6V24.6H229.139V26.6H231.139ZM288.067 149.993L254.867 92.9934L251.411 95.0066L284.611 152.007L288.067 149.993ZM253.139 92H231.139V96H253.139V92ZM229.139 94V151H233.139V94H229.139ZM231.139 149H212.939V153H231.139V149ZM214.939 151V11.6H210.939V151H214.939ZM212.939 13.6H257.939V9.59999H212.939V13.6ZM257.939 13.6C268.254 13.6 276.794 15.3638 283.645 18.7889L285.433 15.2111C277.884 11.4362 268.691 9.59999 257.939 9.59999V13.6ZM283.658 18.7953C290.693 22.249 295.841 26.8652 299.214 32.6124L302.664 30.5876C298.837 24.0681 293.052 18.951 285.42 15.2047L283.658 18.7953ZM299.214 32.6124C302.615 38.4069 304.339 45.0505 304.339 52.6H308.339C308.339 44.4162 306.463 37.0597 302.664 30.5876L299.214 32.6124ZM304.339 52.6C304.339 61.7804 301.672 69.8163 296.35 76.7862L299.529 79.2138C305.406 71.517 308.339 62.6196 308.339 52.6H304.339ZM296.336 76.8047C291.222 83.6648 283.427 88.3225 272.715 90.6454L273.563 94.5546C284.985 92.0775 293.723 87.0019 299.543 79.1953L296.336 76.8047ZM271.424 93.6281L306.424 152.028L309.855 149.972L274.855 91.5719L271.424 93.6281ZM308.139 149H286.339V153H308.139V149ZM231.139 81.4H257.939V77.4H231.139V81.4ZM257.939 81.4C268.1 81.4 276.091 78.9287 281.534 73.6334L278.744 70.7665C274.32 75.0713 267.511 77.4 257.939 77.4V81.4ZM281.553 73.6142C286.924 68.2436 289.539 61.1688 289.539 52.6H285.539C285.539 60.2979 283.221 66.2897 278.725 70.7858L281.553 73.6142ZM289.539 52.6C289.539 43.9143 286.931 36.9252 281.492 31.9273L278.786 34.8727C283.214 38.9415 285.539 44.7523 285.539 52.6H289.539ZM281.512 31.946C276.189 26.9185 268.193 24.6 257.939 24.6V28.6C267.685 28.6 274.489 30.8148 278.766 34.854L281.512 31.946ZM257.939 24.6H231.139V28.6H257.939V24.6ZM229.139 26.6V79.4H233.139V26.6H229.139ZM415.819 81.4L417.208 82.8384L417.209 82.838L415.819 81.4ZM352.819 92.8V90.8H350.819V92.8H352.819ZM352.819 151V153H354.819V151H352.819ZM334.619 151H332.619V153H334.619V151ZM334.619 11.6V9.59999H332.619V11.6H334.619ZM415.419 23L414.053 24.4613L414.059 24.4668L414.065 24.4723L415.419 23ZM402.019 71.2L403.37 72.6743L403.37 72.6743L402.019 71.2ZM352.819 26.6V24.6H350.819V26.6H352.819ZM352.819 77.8H350.819V79.8H352.819V77.8ZM425.819 52.4C425.819 63.4837 422.021 72.6231 414.429 79.962L417.209 82.838C425.617 74.7102 429.819 64.5163 429.819 52.4H425.819ZM414.429 79.9616C407.083 87.0591 395.616 90.8 379.619 90.8V94.8C396.155 94.8 408.822 90.9409 417.208 82.8384L414.429 79.9616ZM379.619 90.8H352.819V94.8H379.619V90.8ZM350.819 92.8V151H354.819V92.8H350.819ZM352.819 149H334.619V153H352.819V149ZM336.619 151V11.6H332.619V151H336.619ZM334.619 13.6H379.619V9.59999H334.619V13.6ZM379.619 13.6C395.055 13.6 406.42 17.3281 414.053 24.4613L416.784 21.5387C408.151 13.4719 395.649 9.59999 379.619 9.59999V13.6ZM414.065 24.4723C421.889 31.6654 425.819 40.9165 425.819 52.4H429.819C429.819 39.8835 425.482 29.5346 416.772 21.5277L414.065 24.4723ZM379.619 79.8C389.985 79.8 398.043 77.5578 403.37 72.6743L400.667 69.7257C396.395 73.6422 389.519 75.8 379.619 75.8V79.8ZM403.37 72.6743C408.682 67.805 411.219 60.9443 411.219 52.4H407.219C407.219 60.1223 404.955 65.795 400.667 69.7257L403.37 72.6743ZM411.219 52.4C411.219 43.4147 408.629 36.3327 403.133 31.5423C397.689 26.7977 389.731 24.6 379.619 24.6V28.6C389.239 28.6 396.081 30.7023 400.505 34.5577C404.875 38.3672 407.219 44.1852 407.219 52.4H411.219ZM379.619 24.6H352.819V28.6H379.619V24.6ZM350.819 26.6V77.8H354.819V26.6H350.819ZM352.819 79.8H379.619V75.8H352.819V79.8Z" fill="#F8F8F8" mask="url(#path-3-outside-2_23_144)"/>
</svg>
