<svg width="438" height="247" viewBox="0 0 438 247" fill="none" xmlns="http://www.w3.org/2000/svg">
<mask id="path-1-outside-1_22_3" maskUnits="userSpaceOnUse" x="31" y="83.8995" width="58" height="135" fill="black">
<rect fill="white" x="31" y="83.8995" width="58" height="135"/>
<path d="M32.24 179.42H38.16V194.62H88V201.9H38.16V217.18H32.24V179.42ZM32.24 127.498H88V134.778H62.72L62.72 163.178H88V170.458H32.24V163.178H56.72L56.72 134.778H32.24V127.498ZM38.16 107.788H56.8V87.4677H62.8V107.788H82L82 85.0677H88L88 115.068H32.16V85.0677H38.16V107.788Z"/>
</mask>
<path d="M32.24 179.42V178.42H31.24V179.42H32.24ZM38.16 179.42H39.16V178.42H38.16V179.42ZM38.16 194.62H37.16V195.62H38.16V194.62ZM88 194.62H89V193.62H88V194.62ZM88 201.9V202.9H89V201.9H88ZM38.16 201.9V200.9H37.16V201.9H38.16ZM38.16 217.18V218.18H39.16V217.18H38.16ZM32.24 217.18H31.24V218.18H32.24V217.18ZM32.24 180.42H38.16V178.42H32.24V180.42ZM37.16 179.42V194.62H39.16V179.42H37.16ZM38.16 195.62H88V193.62H38.16V195.62ZM87 194.62V201.9H89V194.62H87ZM88 200.9H38.16V202.9H88V200.9ZM37.16 201.9V217.18H39.16V201.9H37.16ZM38.16 216.18H32.24V218.18H38.16V216.18ZM33.24 217.18V179.42H31.24L31.24 217.18H33.24ZM32.24 127.498V126.498H31.24V127.498H32.24ZM88 127.498H89V126.498H88V127.498ZM88 134.778V135.778H89V134.778H88ZM62.72 134.778V133.778H61.72V134.778H62.72ZM62.72 163.178H61.72V164.178H62.72V163.178ZM88 163.178H89V162.178H88V163.178ZM88 170.458V171.458H89V170.458H88ZM32.24 170.458H31.24V171.458H32.24V170.458ZM32.24 163.178V162.178H31.24V163.178H32.24ZM56.72 163.178V164.178H57.72V163.178H56.72ZM56.72 134.778H57.72V133.778H56.72V134.778ZM32.24 134.778H31.24V135.778H32.24V134.778ZM32.24 128.498H88V126.498H32.24V128.498ZM87 127.498V134.778H89V127.498H87ZM88 133.778H62.72V135.778H88V133.778ZM61.72 134.778L61.72 163.178H63.72L63.72 134.778H61.72ZM62.72 164.178H88V162.178H62.72V164.178ZM87 163.178V170.458H89V163.178H87ZM88 169.458H32.24V171.458H88V169.458ZM33.24 170.458V163.178H31.24V170.458H33.24ZM32.24 164.178H56.72V162.178H32.24V164.178ZM57.72 163.178L57.72 134.778H55.72L55.72 163.178H57.72ZM56.72 133.778H32.24V135.778H56.72V133.778ZM33.24 134.778V127.498H31.24V134.778H33.24ZM38.16 107.788H37.16V108.788H38.16V107.788ZM56.8 107.788V108.788H57.8V107.788H56.8ZM56.8 87.4677V86.4677H55.8V87.4677H56.8ZM62.8 87.4677H63.8V86.4677H62.8V87.4677ZM62.8 107.788H61.8V108.788H62.8V107.788ZM82 107.788V108.788H83V107.788H82ZM82 85.0677V84.0677H81V85.0677H82ZM88 85.0677H89V84.0677H88V85.0677ZM88 115.068V116.068H89V115.068H88ZM32.16 115.068H31.16V116.068H32.16V115.068ZM32.16 85.0677V84.0677H31.16V85.0677H32.16ZM38.16 85.0677H39.16V84.0677H38.16V85.0677ZM38.16 108.788H56.8V106.788H38.16V108.788ZM57.8 107.788V87.4677H55.8V107.788H57.8ZM56.8 88.4677H62.8V86.4677H56.8V88.4677ZM61.8 87.4677V107.788H63.8V87.4677H61.8ZM62.8 108.788H82V106.788H62.8V108.788ZM83 107.788L83 85.0677H81L81 107.788H83ZM82 86.0677H88V84.0677H82V86.0677ZM87 85.0677L87 115.068H89L89 85.0677H87ZM88 114.068H32.16V116.068H88V114.068ZM33.16 115.068V85.0677H31.16V115.068H33.16ZM32.16 86.0677H38.16V84.0677H32.16V86.0677ZM37.16 85.0677V107.788H39.16V85.0677H37.16Z" fill="#62A0EA" mask="url(#path-1-outside-1_22_3)"/>
<mask id="path-3-outside-2_22_3" maskUnits="userSpaceOnUse" x="111" y="79" width="320" height="142" fill="black">
<rect fill="white" x="111" y="79" width="320" height="142"/>
<path d="M130.6 95.4V142H181.4V157H130.6V205H187.4V220H112.4V80.4H187.4V95.4H130.6ZM288.339 220L255.139 163H233.139V220H214.939V80.6H259.939C270.472 80.6 279.339 82.4 286.539 86C293.872 89.6 299.339 94.4667 302.939 100.6C306.539 106.733 308.339 113.733 308.339 121.6C308.339 131.2 305.539 139.667 299.939 147C294.472 154.333 286.206 159.2 275.139 161.6L310.139 220H288.339ZM233.139 148.4H259.939C269.806 148.4 277.206 146 282.139 141.2C287.072 136.267 289.539 129.733 289.539 121.6C289.539 113.333 287.072 106.933 282.139 102.4C277.339 97.8667 269.939 95.6 259.939 95.6H233.139V148.4ZM429.819 121.4C429.819 133 425.819 142.667 417.819 150.4C409.952 158 397.885 161.8 381.619 161.8H354.819V220H336.619V80.6H381.619C397.352 80.6 409.285 84.4 417.419 92C425.685 99.6 429.819 109.4 429.819 121.4ZM381.619 146.8C391.752 146.8 399.219 144.6 404.019 140.2C408.819 135.8 411.219 129.533 411.219 121.4C411.219 104.2 401.352 95.6 381.619 95.6H354.819V146.8H381.619Z"/>
</mask>
<path d="M130.6 95.4V94.4H129.6V95.4H130.6ZM130.6 142H129.6V143H130.6V142ZM181.4 142H182.4V141H181.4V142ZM181.4 157V158H182.4V157H181.4ZM130.6 157V156H129.6V157H130.6ZM130.6 205H129.6V206H130.6V205ZM187.4 205H188.4V204H187.4V205ZM187.4 220V221H188.4V220H187.4ZM112.4 220H111.4V221H112.4V220ZM112.4 80.4V79.4H111.4V80.4H112.4ZM187.4 80.4H188.4V79.4H187.4V80.4ZM187.4 95.4V96.4H188.4V95.4H187.4ZM129.6 95.4V142H131.6V95.4H129.6ZM130.6 143H181.4V141H130.6V143ZM180.4 142V157H182.4V142H180.4ZM181.4 156H130.6V158H181.4V156ZM129.6 157V205H131.6V157H129.6ZM130.6 206H187.4V204H130.6V206ZM186.4 205V220H188.4V205H186.4ZM187.4 219H112.4V221H187.4V219ZM113.4 220V80.4H111.4V220H113.4ZM112.4 81.4H187.4V79.4H112.4V81.4ZM186.4 80.4V95.4H188.4V80.4H186.4ZM187.4 94.4H130.6V96.4H187.4V94.4ZM288.339 220L287.475 220.503L287.764 221H288.339V220ZM255.139 163L256.003 162.497L255.714 162H255.139V163ZM233.139 163V162H232.139V163H233.139ZM233.139 220V221H234.139V220H233.139ZM214.939 220H213.939V221H214.939V220ZM214.939 80.6V79.6H213.939V80.6H214.939ZM286.539 86L286.092 86.8944L286.098 86.8977L286.539 86ZM299.939 147L299.144 146.393L299.137 146.402L299.939 147ZM275.139 161.6L274.927 160.623L273.565 160.918L274.281 162.114L275.139 161.6ZM310.139 220V221H311.904L310.997 219.486L310.139 220ZM233.139 148.4H232.139V149.4H233.139V148.4ZM282.139 141.2L282.836 141.917L282.846 141.907L282.139 141.2ZM282.139 102.4L281.452 103.127L281.462 103.136L282.139 102.4ZM233.139 95.6V94.6H232.139V95.6H233.139ZM289.203 219.497L256.003 162.497L254.275 163.503L287.475 220.503L289.203 219.497ZM255.139 162H233.139V164H255.139V162ZM232.139 163V220H234.139V163H232.139ZM233.139 219H214.939V221H233.139V219ZM215.939 220V80.6H213.939V220H215.939ZM214.939 81.6H259.939V79.6H214.939V81.6ZM259.939 81.6C270.363 81.6 279.067 83.3819 286.092 86.8944L286.986 85.1056C279.611 81.4181 270.582 79.6 259.939 79.6V81.6ZM286.098 86.8977C293.283 90.4245 298.59 95.1659 302.077 101.106L303.801 100.094C300.088 93.7674 294.462 88.7755 286.98 85.1023L286.098 86.8977ZM302.077 101.106C305.577 107.07 307.339 113.892 307.339 121.6H309.339C309.339 113.575 307.501 106.397 303.801 100.094L302.077 101.106ZM307.339 121.6C307.339 130.99 304.606 139.241 299.144 146.393L300.734 147.607C306.473 140.092 309.339 131.41 309.339 121.6H307.339ZM299.137 146.402C293.847 153.499 285.816 158.261 274.927 160.623L275.351 162.577C286.595 160.139 295.098 155.168 300.741 147.598L299.137 146.402ZM274.281 162.114L309.281 220.514L310.997 219.486L275.997 161.086L274.281 162.114ZM310.139 219H288.339V221H310.139V219ZM233.139 149.4H259.939V147.4H233.139V149.4ZM259.939 149.4C269.953 149.4 277.649 146.964 282.836 141.917L281.442 140.483C276.763 145.036 269.658 147.4 259.939 147.4V149.4ZM282.846 141.907C287.998 136.755 290.539 129.951 290.539 121.6H288.539C288.539 129.516 286.147 135.778 281.432 140.493L282.846 141.907ZM290.539 121.6C290.539 113.124 288.002 106.429 282.816 101.664L281.462 103.136C286.143 107.437 288.539 113.543 288.539 121.6H290.539ZM282.826 101.673C277.764 96.8926 270.066 94.6 259.939 94.6V96.6C269.812 96.6 276.914 98.8407 281.452 103.127L282.826 101.673ZM259.939 94.6H233.139V96.6H259.939V94.6ZM232.139 95.6V148.4H234.139V95.6H232.139ZM417.819 150.4L418.514 151.119L418.514 151.119L417.819 150.4ZM354.819 161.8V160.8H353.819V161.8H354.819ZM354.819 220V221H355.819V220H354.819ZM336.619 220H335.619V221H336.619V220ZM336.619 80.6V79.6H335.619V80.6H336.619ZM417.419 92L416.736 92.7307L416.742 92.7362L417.419 92ZM404.019 140.2L404.694 140.937L404.694 140.937L404.019 140.2ZM354.819 95.6V94.6H353.819V95.6H354.819ZM354.819 146.8H353.819V147.8H354.819V146.8ZM428.819 121.4C428.819 132.742 424.92 142.145 417.124 149.681L418.514 151.119C426.718 143.188 430.819 133.258 430.819 121.4H428.819ZM417.124 149.681C409.517 157.03 397.751 160.8 381.619 160.8V162.8C398.02 162.8 410.387 158.97 418.514 151.119L417.124 149.681ZM381.619 160.8H354.819V162.8H381.619V160.8ZM353.819 161.8V220H355.819V161.8H353.819ZM354.819 219H336.619V221H354.819V219ZM337.619 220V80.6H335.619V220H337.619ZM336.619 81.6H381.619V79.6H336.619V81.6ZM381.619 81.6C397.203 81.6 408.852 85.3641 416.736 92.7306L418.102 91.2693C409.718 83.4359 397.501 79.6 381.619 79.6V81.6ZM416.742 92.7362C424.787 100.133 428.819 109.658 428.819 121.4H430.819C430.819 109.142 426.584 99.0673 418.096 91.2638L416.742 92.7362ZM381.619 147.8C391.869 147.8 399.631 145.579 404.694 140.937L403.343 139.463C398.807 143.621 391.636 145.8 381.619 145.8V147.8ZM404.694 140.937C409.75 136.302 412.219 129.739 412.219 121.4H410.219C410.219 129.328 407.887 135.297 403.343 139.463L404.694 140.937ZM412.219 121.4C412.219 112.607 409.69 105.841 404.476 101.296C399.287 96.7738 391.608 94.6 381.619 94.6V96.6C391.362 96.6 398.483 98.7262 403.162 102.804C407.814 106.859 410.219 112.993 410.219 121.4H412.219ZM381.619 94.6H354.819V96.6H381.619V94.6ZM353.819 95.6V146.8H355.819V95.6H353.819ZM354.819 147.8H381.619V145.8H354.819V147.8Z" fill="#62A0EA" mask="url(#path-3-outside-2_22_3)"/>
</svg>
