<svg width="670" height="667" viewBox="0 0 670 667" fill="none" xmlns="http://www.w3.org/2000/svg">
<path d="M247.93 235.094C248.099 232.648 247.66 230.198 246.652 227.96C245.644 225.723 244.099 223.767 242.152 222.265C241.474 222.096 229.605 233.828 212.295 222.096C211.039 222.647 209.908 223.445 208.971 224.443C208.034 225.441 207.31 226.618 206.842 227.903C206.375 229.187 206.174 230.552 206.251 231.916C206.329 233.28 206.683 234.615 207.293 235.839C223.826 250.355 235.101 243.097 241.965 240.227C243.07 239.805 243.917 241.409 243.07 242.17C232.896 250.946 213.139 247.654 205.678 236.344C183.918 240.176 138.985 282.868 131.1 293.08C131.176 299.222 130.435 305.348 128.894 311.297C128.641 312.227 127.029 312.058 127.116 311.045C130.252 283.53 122.705 255.593 120.586 255.171C118.384 254.75 115.244 259.812 100.408 254.58C97.0182 253.398 85.8267 298.807 99.6443 329.866C100.626 332.425 102.336 334.642 104.565 336.247C106.794 337.851 109.446 338.773 112.194 338.898C121.183 339.742 158.568 324.295 167.734 318.725C166.549 324.887 170.023 354.766 170.944 362.277C172.893 377.132 178.829 407.265 179.847 407.856C207.569 424.99 243.349 413.762 243.349 413.762C243.349 413.762 250.216 395.954 278.619 367.004C282.433 363.121 281.829 312.48 280.654 304.042C286.163 308.6 291.505 313.579 297.271 317.97C296.591 310.878 309.224 286.908 309.224 283.773C309.143 272.571 247.847 235.516 247.93 235.094ZM241.577 231.044C238.995 233.426 235.875 235.153 232.48 236.078C229.086 237.004 225.517 237.1 222.077 236.36C220.976 236.193 221.483 234.503 222.501 234.672C228.897 235.329 235.308 233.584 240.479 229.779C241.317 229.271 242.161 230.45 241.577 231.044Z" fill="white"/>
<path d="M336.358 449.986C335.011 449.603 333.588 449.568 332.224 449.886C330.86 450.203 329.601 450.863 328.564 451.801C327.528 452.739 326.75 453.926 326.304 455.248C325.857 456.569 325.758 457.983 326.014 459.354C326.31 460.601 326.912 461.756 327.766 462.715C328.62 463.675 329.699 464.409 330.907 464.852C332.115 465.295 333.415 465.433 334.69 465.255C335.965 465.076 337.175 464.586 338.214 463.828C344.496 459.692 339.324 451.006 336.358 449.986Z" fill="white"/>
<path d="M404.949 412.848C356.622 412.89 308.379 412.679 260.053 412.931C259.774 412.934 259.5 413 259.25 413.124C259.001 413.247 258.783 413.425 258.612 413.644C258.441 413.863 258.322 414.117 258.263 414.388C258.205 414.66 258.209 414.94 258.274 415.21C263.022 443.572 267.43 471.93 273.026 500.119C273.28 501.219 275.232 500.963 275.062 499.867C271.414 472.013 266.583 444.256 262.175 416.562C309.047 416.814 355.858 416.645 402.743 416.731C398.419 443.994 393.754 471.339 390.864 498.771C372.382 498.601 288.192 497.588 279.63 499.192C278.782 499.362 279.036 500.541 279.797 500.627C288.699 501.554 373.059 502.567 391.288 501.049C391.486 501.211 391.72 501.321 391.971 501.37C392.221 501.418 392.48 501.404 392.724 501.329C392.968 501.254 393.189 501.119 393.368 500.937C393.546 500.756 393.677 500.533 393.747 500.289C399.597 472.269 402.563 443.572 406.971 415.296C407.026 414.999 407.016 414.694 406.94 414.402C406.864 414.109 406.725 413.837 406.532 413.603C406.34 413.37 406.098 413.182 405.824 413.051C405.551 412.921 405.252 412.851 404.949 412.848Z" fill="white"/>
<path d="M396.723 504.846C396.648 504.591 396.492 504.367 396.278 504.207C396.065 504.048 395.804 503.961 395.537 503.961C395.27 503.961 395.01 504.048 394.796 504.207C394.582 504.367 394.426 504.591 394.351 504.846C394.089 505.925 393.947 507.029 393.927 508.138C384.938 508.812 297.274 507.818 277.351 507.969C277.199 506.512 276.915 505.072 276.503 503.667C276.451 503.495 276.345 503.344 276.201 503.237C276.056 503.13 275.881 503.072 275.7 503.072C275.52 503.072 275.345 503.13 275.2 503.237C275.056 503.344 274.95 503.495 274.898 503.667C274.615 505.594 274.501 507.543 274.557 509.49C274.57 509.889 274.735 510.269 275.019 510.551C275.303 510.833 275.684 510.997 276.086 511.008C296.347 512.36 385.792 512.191 395.542 511.261C395.963 511.246 396.362 511.072 396.66 510.776C396.958 510.479 397.132 510.082 397.147 509.663C397.18 508.047 397.038 506.432 396.723 504.846Z" fill="white"/>
<path d="M245.811 500.973C239.728 506.313 219.104 530.935 214.272 537.011C205.029 533.889 167.301 524.94 158.145 522.747C174.932 509.496 188.583 497.342 204.696 485.609C204.997 485.379 205.206 485.049 205.286 484.679C217.722 488.355 230.345 491.37 243.102 493.711C244.203 493.797 244.203 492.362 243.355 492.024C230.672 488.055 217.763 484.842 204.696 482.404C204.45 482.361 204.197 482.405 203.98 482.528C203.763 482.651 203.596 482.845 203.508 483.078C204.949 481.895 184.515 498.269 156.199 522.495C156.029 522.553 155.88 522.658 155.769 522.798C155.657 522.938 155.589 523.107 155.571 523.284C155.553 523.462 155.586 523.641 155.668 523.8C155.749 523.959 155.874 524.092 156.029 524.182C166.652 528.928 213.396 541.14 214.953 539.204C220.889 533.208 243.015 508.649 247.423 502.066C247.93 501.132 246.575 500.292 245.811 500.973Z" fill="white"/>
<path d="M177.221 517.761C183.526 519.04 208.166 527.468 214.356 528.903C214.594 528.963 214.845 528.936 215.064 528.826C215.284 528.716 215.456 528.531 215.549 528.305C215.642 528.079 215.65 527.827 215.571 527.596C215.492 527.364 215.332 527.169 215.12 527.046C203.675 521.223 190.024 519.027 177.558 516.326C176.726 516.157 176.293 517.57 177.221 517.761Z" fill="white"/>
<path d="M184.769 508.899C191.758 512.603 199.379 514.979 207.241 515.905C208.429 515.988 208.596 514.307 207.495 513.961C200.01 512.181 192.623 510.012 185.366 507.464C184.512 507.211 183.918 508.56 184.769 508.899Z" fill="white"/>
<path d="M198.236 498.518C207.141 502.232 216.29 505.335 225.621 507.803C226.639 508.055 227.403 506.524 226.385 506.029C217.334 502.489 208.076 499.5 198.66 497.08C198.473 497.038 198.278 497.069 198.113 497.166C197.948 497.263 197.826 497.419 197.772 497.602C197.718 497.784 197.736 497.981 197.823 498.151C197.909 498.321 198.057 498.452 198.236 498.518Z" fill="white"/>
<path d="M322.8 331.736C325.086 335.367 330.505 339.087 334.839 336.463C335.048 336.323 335.208 336.121 335.296 335.887C335.384 335.652 335.396 335.396 335.331 335.154C335.265 334.912 335.125 334.696 334.931 334.537C334.736 334.378 334.497 334.284 334.246 334.267C332.38 334.184 327.208 335.546 323.818 330.892C323.388 330.218 322.367 331.061 322.8 331.736Z" fill="white"/>
<path d="M332.798 326.926C333.497 327.294 334.276 327.487 335.068 327.488C335.859 327.49 336.639 327.3 337.34 326.934C338.04 326.568 338.642 326.039 339.091 325.39C339.54 324.742 339.824 323.994 339.918 323.212C339.924 316.816 338.893 310.46 336.865 304.39C336.358 303.377 335 303.969 334.917 304.895C334.576 308.091 339.154 326.673 333.311 325.67C333.156 325.646 332.996 325.674 332.859 325.752C332.722 325.829 332.615 325.95 332.555 326.095C332.496 326.241 332.487 326.402 332.531 326.553C332.575 326.703 332.669 326.835 332.798 326.926Z" fill="white"/>
<path d="M345.514 306.922C345.424 308.452 345.685 309.982 346.278 311.396C346.373 311.565 346.518 311.701 346.692 311.787C346.867 311.872 347.063 311.903 347.256 311.876C347.448 311.848 347.628 311.763 347.771 311.632C347.914 311.5 348.013 311.329 348.057 311.14C348.288 309.616 348.178 308.06 347.736 306.583C347.633 305.317 345.431 305.57 345.514 306.922Z" fill="white"/>
<path d="M324.319 311.649C324.407 311.784 324.523 311.899 324.659 311.987C324.796 312.074 324.949 312.132 325.109 312.156C325.27 312.18 325.433 312.169 325.589 312.125C325.745 312.081 325.89 312.005 326.014 311.901C326.862 310.888 326.608 309.117 326.608 307.852C326.608 306.669 324.743 306.078 324.319 307.852C324.147 309.112 324.147 310.389 324.319 311.649Z" fill="white"/>
<path d="M320.929 304.982C322.5 303.08 324.546 301.624 326.862 300.76C327.011 300.665 327.125 300.524 327.188 300.36C327.251 300.195 327.26 300.015 327.212 299.845C327.165 299.675 327.064 299.525 326.925 299.417C326.785 299.308 326.615 299.247 326.438 299.242C324.893 299.239 323.38 299.684 322.085 300.524C320.79 301.363 319.769 302.56 319.147 303.969C319.072 304.085 319.021 304.216 318.998 304.353C318.975 304.49 318.981 304.63 319.014 304.765C319.047 304.899 319.108 305.026 319.191 305.137C319.275 305.247 319.381 305.34 319.502 305.409C319.623 305.478 319.757 305.521 319.895 305.537C320.034 305.553 320.174 305.54 320.308 305.5C320.441 305.46 320.565 305.394 320.672 305.305C320.779 305.215 320.866 305.106 320.929 304.982Z" fill="white"/>
<path d="M343.906 299.494C346.615 300.424 349.415 305.151 350.432 306.33C350.569 306.46 350.745 306.541 350.933 306.563C351.12 306.584 351.31 306.544 351.472 306.449C351.635 306.353 351.762 306.208 351.835 306.035C351.907 305.861 351.921 305.669 351.874 305.487C351.322 303.787 350.397 302.23 349.165 300.931C347.933 299.632 346.426 298.622 344.753 297.976C343.819 297.385 342.888 298.903 343.906 299.494Z" fill="white"/>
<path d="M319.995 364.655C328.643 386.177 347.887 372.926 349.668 366.509C350.092 365.077 348.227 364.569 347.463 365.582C344.159 369.804 333.138 381.533 321.69 364.233C321.012 363.303 319.657 363.543 319.995 364.655Z" fill="white"/>
<path d="M503.126 501.641C502.385 496.824 497.614 490.921 492.782 492.947C492.699 491.26 492.699 489.569 492.612 487.882C494.648 483.088 483.963 474.631 458.023 481.298C456.739 481.637 457.343 483.746 458.614 483.324C472.859 478.345 493.376 482.985 487.61 488.304C484.4 491.26 464.38 495.057 455.477 485.427C455.137 484.331 454.036 484.414 453.782 485.175C453.782 485.175 452.177 514.124 453.699 519.442C453.699 527.477 480.002 535.669 492.442 522.396C493.206 521.552 491.851 520.286 490.917 520.878C485.575 524.074 469.382 531.766 455.901 519.442C457.185 514.041 456.071 493.785 455.818 489.48C462.855 496.23 485.658 494.628 490.323 490.832C490.002 494.542 489.305 512.606 491.087 517.164C491.511 518.177 493.206 518.516 493.46 517.164C493.629 516.329 493.713 515.48 493.713 514.629C495.196 514.409 496.62 513.896 497.9 513.12C499.181 512.344 500.293 511.32 501.17 510.11C502.047 508.9 502.672 507.527 503.008 506.072C503.344 504.618 503.384 503.111 503.126 501.641ZM499.916 503.919C499.818 505.621 499.172 507.247 498.073 508.554C496.975 509.862 495.482 510.782 493.816 511.178C493.646 508.301 492.969 497.588 492.882 495.057C497.36 493.791 500.173 500.289 499.916 503.919Z" fill="white"/>
<path d="M387.991 304.982C383.523 310.393 380.492 316.835 379.175 323.717C378.918 324.995 380.781 325.491 381.041 324.225C382.12 320.185 383.715 316.299 385.786 312.662C384.755 325.627 385.039 338.662 386.633 351.57C386.72 352.753 388.585 352.849 388.585 351.57C388.839 337.137 386.98 322.959 388.498 308.609C388.516 308.504 388.51 308.397 388.481 308.294C388.451 308.192 388.399 308.098 388.328 308.018C388.669 307.344 389.009 306.739 389.349 306.078C389.94 305.234 388.656 304.211 387.991 304.982Z" fill="white"/>
<path d="M448.694 186.396C448.623 187.07 448.103 189.854 448.61 190.445C448.704 190.599 448.831 190.73 448.981 190.828C449.132 190.927 449.303 190.99 449.482 191.015C449.661 191.039 449.843 191.023 450.015 190.968C450.187 190.913 450.344 190.821 450.475 190.698C451.069 190.11 451.069 187.323 451.069 186.648C450.986 184.961 448.796 185.469 448.694 186.396Z" fill="white"/>
<path d="M429.45 187.24C429.197 188.717 429.139 190.222 429.28 191.714C429.45 192.644 430.805 192.558 431.059 191.714C431.316 190.237 431.403 188.736 431.316 187.24C431.302 187.003 431.197 186.78 431.024 186.617C430.851 186.455 430.621 186.364 430.383 186.364C430.145 186.364 429.915 186.455 429.742 186.617C429.569 186.78 429.464 187.003 429.45 187.24Z" fill="white"/>
<path d="M427.839 185.204C429.494 183.841 431.544 183.042 433.688 182.925C434.622 182.755 434.366 181.573 433.688 181.327C432.34 180.993 430.92 181.1 429.638 181.632C428.355 182.164 427.279 183.092 426.567 184.28C425.974 184.961 427.255 185.811 427.839 185.204Z" fill="white"/>
<path d="M447.509 178.46C449.261 180.4 451.13 182.233 453.105 183.948C453.246 184.023 453.406 184.057 453.566 184.043C453.726 184.029 453.878 183.969 454.004 183.87C454.13 183.771 454.224 183.638 454.275 183.486C454.326 183.335 454.331 183.172 454.289 183.018C453.174 180.41 451.073 178.343 448.44 177.265C447.686 176.942 446.822 177.878 447.509 178.46Z" fill="white"/>
<path d="M566.205 204.962C566.128 204.118 564.676 203.782 564.599 204.709C563.945 209.157 563.548 213.639 563.412 218.132C562.52 217.126 561.494 216.246 560.362 215.518C562.248 208.185 562.623 200.547 561.463 193.066C561.209 191.788 559.257 192.136 559.174 193.402C559.004 200.494 559.514 207.499 558.667 214.671C557.537 214.158 556.335 213.817 555.103 213.661C556.234 204.396 555.426 194.999 552.73 186.06C552.477 185.3 551.125 185.386 551.206 186.23C552.137 195.345 553.154 204.377 553.238 213.575C552.037 213.645 548.994 214.272 548.576 215.096C548.6 207.323 546.769 199.655 543.234 192.724C543.11 192.526 542.919 192.379 542.696 192.31C542.473 192.24 542.232 192.252 542.017 192.344C541.802 192.436 541.627 192.602 541.524 192.811C541.421 193.02 541.397 193.259 541.456 193.485C544.949 203.169 546.616 213.413 546.371 223.7C546.371 225.135 548.493 225.052 548.576 223.7C548.66 221.252 548.746 218.804 548.66 216.349C548.751 216.488 548.877 216.6 549.026 216.674C549.175 216.749 549.341 216.782 549.507 216.771C552.019 216.313 554.607 216.516 557.016 217.36C559.425 218.204 561.571 219.659 563.241 221.581C563.158 224.704 562.394 249.182 562.394 258.297C562.394 259.141 563.678 259.141 563.752 258.297C564.51 249.192 566.985 213.732 566.205 204.962Z" fill="white"/>
<path d="M558.233 262.867C555.344 262.359 548.994 260.672 547.469 257.38C549.653 251.343 550.035 244.807 548.57 238.558C548.709 238.426 548.812 238.26 548.867 238.076C548.923 237.892 548.93 237.697 548.887 237.51C548.844 237.323 548.754 237.15 548.624 237.008C548.494 236.867 548.329 236.761 548.146 236.702C536.955 232.396 538.733 219.063 530.848 211.718C530.258 211.127 529.07 211.887 529.564 212.648C535.076 219.906 535.243 237.715 546.862 238.728C547.54 244.333 547.254 250.013 546.014 255.523C545.559 254.808 545.048 254.131 544.486 253.497C544.146 253.161 543.722 253.075 542.881 254.088C532.287 267.339 534.149 300.089 535.25 309.878C535.423 310.977 537.118 310.977 537.032 309.878C536.101 300.51 538.316 269.365 543.985 257.38C545.591 262.107 554.58 265.568 558.06 264.731C559.167 264.466 559.251 262.947 558.233 262.867Z" fill="white"/>
<path d="M576.549 169.006C575.768 168.178 574.597 169.345 575.264 170.285C591.798 192.398 586.289 216.451 582.969 225.819C582.629 226.832 584.154 227.417 584.664 226.58C589.601 217.362 591.475 206.823 590.017 196.478C588.559 186.133 583.843 176.515 576.549 169.006Z" fill="white"/>
<path d="M595.625 172.384C595.034 171.62 593.76 172.384 594.341 173.142C602.142 184.031 604.007 195.933 603.837 208.937C603.847 209.172 603.939 209.395 604.098 209.568C604.257 209.742 604.472 209.853 604.706 209.883C604.94 209.914 605.177 209.861 605.375 209.734C605.573 209.607 605.72 209.414 605.789 209.19C608.428 196.355 603.458 182.484 595.625 172.384Z" fill="white"/>
<path d="M531.359 287.004C528.347 275.179 508.045 254.759 470.823 243.365C470.85 241.939 470.468 240.534 469.722 239.316C468.621 237.373 460.055 230.031 457.172 230.114C456.071 230.284 455.567 232.224 455.14 232.901C454.848 231.453 454.333 230.058 453.612 228.766C453.48 228.559 453.284 228.399 453.054 228.311C452.824 228.223 452.571 228.212 452.334 228.278C452.096 228.343 451.886 228.484 451.735 228.677C451.583 228.871 451.499 229.108 451.493 229.354C451.78 231.597 452.469 233.771 453.529 235.771C451.605 239.064 448.821 241.776 445.474 243.621C444.626 244.043 445.22 245.308 446.151 245.139C452.251 243.704 457.429 235.433 458.03 232.994C461.208 234.963 464.214 237.193 467.019 239.661C471.597 243.63 460.575 257.977 454.299 263.97C454.469 256.619 448.28 249.454 442.517 245.753C440.228 245.161 432.173 257.652 430.815 264.322C421.442 259.003 414.398 250.396 411.061 240.182C414.068 235.817 418.455 232.578 423.524 230.981C423.694 238.156 432.256 245.244 438.786 246.258C439.804 246.427 440.652 244.909 439.547 244.487C435.324 242.461 431.526 239.654 428.356 236.216C429.106 234.704 429.593 233.076 429.797 231.402C429.784 231.191 429.704 230.988 429.57 230.824C429.435 230.659 429.252 230.541 429.046 230.485C428.84 230.429 428.622 230.439 428.423 230.513C428.223 230.587 428.051 230.722 427.932 230.897C427.427 231.798 427.056 232.767 426.831 233.774C426.17 232.539 425.576 231.271 425.049 229.974C424.94 229.736 424.755 229.541 424.522 229.419C424.29 229.297 424.024 229.255 423.765 229.299C417.832 230.229 408.589 235.372 409.267 240.863C395.703 242.141 379.763 257.163 376.713 262.893C376.609 263.085 376.577 263.307 376.623 263.52C376.669 263.733 376.789 263.922 376.963 264.054C377.137 264.187 377.352 264.253 377.571 264.241C377.789 264.229 377.996 264.14 378.154 263.989C383.493 259.601 389.343 249.895 409.694 242.72C412.236 252.765 421.306 263.906 430.972 266.69C431.128 266.73 431.292 266.73 431.448 266.691C431.604 266.651 431.748 266.573 431.867 266.464C431.985 266.355 432.074 266.218 432.125 266.066C432.176 265.914 432.188 265.752 432.16 265.594C432.244 265.507 436.228 252.595 442.433 247.868C453.557 255.811 450.199 267.799 453.795 266.607C462.02 264.072 470.168 248.29 470.666 245.168C513.82 261.205 526.206 282.475 529.59 287.876C529.74 288.04 529.94 288.151 530.159 288.191C530.378 288.232 530.604 288.201 530.804 288.103C531.004 288.004 531.166 287.844 531.266 287.646C531.366 287.447 531.398 287.222 531.359 287.004Z" fill="white"/>
<path d="M103.291 250.202C100.286 240.959 89.7242 199.56 87.7754 195.341C87.2682 194.328 85.8267 194.92 85.74 195.846C85.5699 200.235 97.8658 241.595 101.51 250.623C101.924 251.723 103.645 251.295 103.291 250.202Z" fill="white"/>
<path d="M91.7596 187.997C91.6019 195.114 93.2962 202.151 96.6779 208.423C96.7788 208.658 96.9693 208.843 97.2074 208.938C97.4455 209.033 97.7118 209.03 97.9476 208.929C98.1835 208.829 98.3696 208.639 98.465 208.402C98.5605 208.165 98.5574 207.9 98.4565 207.665C96.2443 201.166 94.5167 194.513 93.2877 187.76C93.201 186.901 91.766 187.153 91.7596 187.997Z" fill="white"/>
<path d="M101.002 182.426C99.951 189.727 100.827 197.174 103.545 204.035C103.969 205.048 105.327 204.287 105.15 203.36C103.74 196.493 102.917 189.519 102.691 182.513C102.71 182.395 102.705 182.275 102.674 182.159C102.644 182.044 102.589 181.937 102.514 181.844C102.439 181.751 102.345 181.675 102.238 181.621C102.132 181.567 102.015 181.535 101.895 181.529C101.776 181.523 101.656 181.542 101.544 181.585C101.433 181.628 101.332 181.694 101.247 181.779C101.163 181.864 101.098 181.965 101.055 182.077C101.013 182.188 100.995 182.307 101.002 182.426Z" fill="white"/>
<path d="M113.212 179.304C107.616 190.953 110.496 209.858 112.955 214.924C113.379 215.851 114.907 215.346 114.82 214.416C114.483 208.845 110.836 194.75 114.907 179.726C115.244 178.713 113.635 178.208 113.212 179.304Z" fill="white"/>
<path d="M97.6956 214.668C101.165 212.603 105.101 211.442 109.141 211.293C110.158 211.124 110.582 209.605 109.394 209.353C107.151 209.032 104.865 209.206 102.697 209.862C100.529 210.518 98.5321 211.64 96.8481 213.15C95.9139 213.824 96.7582 215.339 97.6956 214.668Z" fill="white"/>
<path d="M125.758 202.782C119.446 209.922 124.74 226.33 112.955 228.779C112.107 228.945 112.277 230.466 113.212 230.377C114.049 230.271 114.873 230.074 115.668 229.788C115.801 237.332 116.942 244.824 119.061 252.068C119.398 252.915 120.926 252.493 120.84 251.563C120.502 247.932 118.127 232.825 117.79 228.775C125.064 224.301 124.605 212.044 127.54 203.961C127.615 203.732 127.612 203.484 127.532 203.256C127.453 203.028 127.3 202.832 127.098 202.699C126.896 202.565 126.656 202.501 126.414 202.516C126.172 202.531 125.942 202.624 125.758 202.782Z" fill="white"/>
<path d="M78.873 162.087C79.5439 161.237 78.1956 160.23 77.4315 160.99C64.9686 173.059 63.5272 194.245 69.3765 209.689C69.8003 210.702 71.412 210.28 71.0716 209.267C68.4455 201.248 65.8997 178.581 78.873 162.087Z" fill="white"/>
<path d="M59.8834 154.068C50.4672 161.575 48.6052 176.264 51.9986 187.07C52.0689 187.278 52.2154 187.452 52.4087 187.557C52.602 187.662 52.828 187.691 53.0417 187.638C53.2554 187.585 53.4412 187.453 53.562 187.27C53.6828 187.087 53.7299 186.865 53.6937 186.648C52.4095 180.991 52.7595 164.027 61.5785 155.327C62.4357 154.407 60.7309 153.393 59.8834 154.068Z" fill="white"/>
<path d="M178.746 411.752C177.462 420.359 179.764 454.796 182.987 462.224C183.135 462.459 183.355 462.639 183.615 462.739C183.875 462.838 184.16 462.851 184.428 462.775C184.695 462.698 184.931 462.538 185.099 462.317C185.267 462.096 185.358 461.827 185.359 461.549C184.428 453.278 180.444 420.276 180.528 411.918C180.444 410.991 178.832 410.739 178.746 411.752Z" fill="white"/>
<path d="M220.122 217.455C221.144 218.558 222.386 219.437 223.769 220.036C225.152 220.635 226.645 220.94 228.152 220.932C229.66 220.923 231.15 220.602 232.526 219.989C233.902 219.375 235.135 218.483 236.145 217.369C236.909 216.272 235.467 215.259 234.45 215.681C232.545 217.168 230.221 218.024 227.803 218.13C225.385 218.236 222.995 217.587 220.966 216.272C220.808 216.19 220.626 216.167 220.453 216.208C220.28 216.249 220.127 216.351 220.024 216.496C219.921 216.64 219.874 216.817 219.892 216.994C219.91 217.17 219.991 217.334 220.122 217.455Z" fill="white"/>
<path d="M225.801 212.05C233.333 215.355 230.803 196.182 229.011 193.143C228.903 192.965 228.746 192.822 228.558 192.732C228.37 192.642 228.16 192.609 227.953 192.635C227.746 192.662 227.551 192.748 227.393 192.883C227.234 193.018 227.118 193.196 227.059 193.395C226.892 194.674 229.095 210.785 226.469 210.363C225.547 210.197 224.793 211.609 225.801 212.05Z" fill="white"/>
<path d="M235.891 197.198C235.725 198.827 235.958 200.472 236.569 201.992C236.707 202.135 236.877 202.243 237.064 202.309C237.252 202.374 237.452 202.396 237.65 202.371C237.847 202.347 238.036 202.277 238.201 202.168C238.367 202.058 238.505 201.912 238.604 201.74C238.9 200.11 238.813 198.434 238.35 196.844C238.01 195.431 236.042 195.846 235.891 197.198Z" fill="white"/>
<path d="M215.29 197.198C214.742 198.922 214.683 200.762 215.12 202.517C215.238 202.688 215.396 202.828 215.58 202.925C215.765 203.022 215.971 203.073 216.179 203.073C216.388 203.073 216.593 203.022 216.778 202.925C216.963 202.828 217.121 202.688 217.239 202.517C217.666 200.892 217.838 199.211 217.746 197.534C217.662 196.185 215.486 195.767 215.29 197.198Z" fill="white"/>
<path d="M212.661 194.498C214.356 192.133 218.17 192.133 219.274 191.711C220.035 191.458 220.462 190.193 219.528 189.771C217.976 189.362 216.336 189.443 214.832 190.002C213.329 190.561 212.037 191.572 211.136 192.893C210.285 193.99 211.643 195.511 212.661 194.498Z" fill="white"/>
<path d="M234.62 190.784C237.927 191.12 239.198 194.076 240.216 194.498C240.977 194.817 242.081 194.411 241.994 193.485C241.741 190.362 237.586 188.927 234.957 188.758C234.71 188.759 234.472 188.847 234.284 189.007C234.096 189.166 233.971 189.387 233.93 189.629C233.89 189.872 233.937 190.121 234.063 190.332C234.189 190.543 234.387 190.703 234.62 190.784Z" fill="white"/>
<path d="M238.434 152.633C234.283 150.686 217.069 150.686 213.325 152.284C181.362 165.283 188.483 193.136 188.57 193.389C189.357 196.191 190.946 198.705 193.144 200.624C195.341 202.542 198.052 203.783 200.946 204.195C202.027 210.277 204.82 215.93 209.001 220.494C225.538 238.223 254.794 227.289 254.444 198.717C258.598 198.042 260.721 192.893 260.974 189.096C261.485 181.441 259.59 173.817 255.55 167.283C251.511 160.749 245.529 155.628 238.434 152.633ZM246.489 215.346C244.773 218.275 242.36 220.74 239.462 222.523C236.565 224.307 233.271 225.354 229.872 225.573C212.15 227.26 203.588 209.2 201.386 194.514C201.469 194.175 203.334 190.126 214.526 187.93C220.799 186.747 226.565 176.619 226.311 169.783C226.536 174.622 233.182 184.625 244.2 188.352C246.606 189.085 248.695 190.601 250.133 192.657C250.91 200.406 249.654 208.224 246.489 215.346Z" fill="white"/>
<path d="M233.602 147.992C236.652 148.67 240.216 149.849 241.657 145.88C243.352 141.07 246.152 127.058 222.157 126.131C216.599 125.783 211.046 126.885 206.047 129.327C202.454 131.181 199.683 134.299 198.272 138.074C196.862 141.85 196.913 146.013 198.416 149.753C200.368 154.65 204.012 153.975 207.572 151.527C218.17 144.448 230.209 147.235 233.602 147.992Z" fill="white"/>
<path d="M171.031 462.3C163.861 428.786 148.021 397.718 125.08 372.172C124.869 371.972 124.609 371.829 124.326 371.758C124.043 371.687 123.747 371.69 123.465 371.766C123.184 371.843 122.927 371.99 122.719 372.195C122.512 372.399 122.361 372.653 122.281 372.933C114.653 392.85 115.16 417.16 125.758 435.981C126.522 437.416 128.471 436.15 127.877 434.703C119.503 416.446 118.294 395.73 124.487 376.631C146.002 401.472 161.365 430.99 169.343 462.815C169.59 463.828 171.269 463.409 171.031 462.3Z" fill="white"/>
<path d="M117.449 423.309C109.818 412.123 87.098 391.572 41.4844 380.261C40.1264 379.942 38.4313 381.274 39.0253 382.709C48.4009 406.833 64.7025 427.674 85.8974 442.635C78.0105 440.54 69.8972 439.407 61.7358 439.26C61.4117 439.268 61.095 439.358 60.8164 439.523C60.5377 439.688 60.3066 439.922 60.1452 440.202C59.9838 440.482 59.8976 440.798 59.8951 441.121C59.8925 441.444 59.9736 441.762 60.1305 442.044C66.6573 453.694 77.5952 464.074 90.8221 467.366C92.1063 467.705 92.941 465.845 91.7531 465.254C81.0416 460.288 71.8308 452.604 65.0457 442.974C74.5421 443.143 93.6184 446.854 93.7886 446.688C94.0452 446.715 94.304 446.664 94.5313 446.542C94.7585 446.42 94.9437 446.233 95.0625 446.005C95.1814 445.777 95.2285 445.519 95.1977 445.264C95.1668 445.009 95.0595 444.769 94.8897 444.575C90.1415 440.021 61.9958 423.731 44.4444 385.327C70.3878 393.346 97.6892 403.896 116.255 424.236C116.772 425.003 117.976 424.069 117.449 423.309Z" fill="white"/>
<path d="M130.423 407.968C148.141 435.569 149.412 450.156 152.379 458.948C152.719 459.961 154.584 459.875 154.414 458.695C152.212 440.296 142.715 421.896 131.941 407.124C131.183 406.264 129.742 407.009 130.423 407.968Z" fill="white"/>
<path d="M134.991 454.966C134.933 450.548 134.503 446.144 133.707 441.798C133.453 440.702 131.842 441.037 131.842 442.05C131.873 446.377 132.242 450.695 132.946 454.966C133.135 456.145 135.078 456.228 134.991 454.966Z" fill="white"/>
<path d="M111.43 431.67C111.388 428.793 111.006 426.016 110.836 423.229C110.752 422.638 109.818 422.555 109.818 423.229C109.818 426.105 109.818 428.883 109.905 431.67C109.898 431.773 109.913 431.878 109.948 431.976C109.983 432.073 110.038 432.163 110.11 432.239C110.181 432.315 110.268 432.376 110.364 432.417C110.459 432.458 110.563 432.48 110.667 432.48C110.772 432.48 110.875 432.458 110.971 432.417C111.067 432.376 111.153 432.315 111.225 432.239C111.296 432.163 111.351 432.073 111.387 431.976C111.422 431.878 111.437 431.773 111.43 431.67Z" fill="white"/>
<path d="M92.6135 415.127C91.9453 412.619 91.0955 410.162 90.0709 407.776C89.7306 407.015 88.6294 407.61 88.7867 408.284C89.2674 410.745 89.9185 413.171 90.7354 415.542C91.1656 416.814 92.9603 416.303 92.6135 415.127Z" fill="white"/>
<path d="M118.807 450.999C115.454 450.635 112.07 450.635 108.717 450.999C107.783 451.082 107.359 452.517 108.463 452.77C111.879 453.346 115.348 453.545 118.807 453.361C119.111 453.345 119.398 453.214 119.607 452.994C119.817 452.775 119.933 452.483 119.933 452.18C119.933 451.877 119.817 451.586 119.607 451.366C119.398 451.146 119.111 451.015 118.807 450.999Z" fill="white"/>
<path d="M96.7614 427.464C94.334 427.277 91.9033 427.136 89.4705 427.042C88.4528 427.042 88.5395 428.394 89.4705 428.563C91.8463 428.883 94.2862 429.068 96.7614 429.237C97.8658 429.305 97.8658 427.531 96.7614 427.464Z" fill="white"/>
<path d="M133.386 460.197C123.607 447.175 112.244 435.409 99.5577 425.169C87.105 414.66 73.7119 405.309 59.5462 397.232C58.8689 396.81 58.1882 397.907 58.8689 398.328C64.7427 402.008 70.4833 405.893 76.0799 409.978C73.2506 410.54 70.3905 410.934 67.5145 411.161C66.7536 411.244 66.8371 412.509 67.5145 412.679C70.4141 413.191 73.3982 412.93 76.1634 411.921C76.3043 411.876 76.4336 411.8 76.5424 411.7C76.6511 411.599 76.7366 411.477 76.7931 411.34C76.8496 411.204 76.8756 411.057 76.8694 410.909C76.8633 410.762 76.825 410.618 76.7573 410.486C105.468 431.507 114.997 444.457 131.951 461.211C132.712 461.981 133.98 461.044 133.386 460.197Z" fill="white"/>
<path d="M536.868 450.999C536.349 442.257 536.779 433.484 538.152 424.833C538.205 424.632 538.177 424.419 538.073 424.239C537.969 424.059 537.798 423.926 537.597 423.871C537.396 423.815 537.181 423.841 536.999 423.942C536.817 424.043 536.682 424.212 536.624 424.411C534.271 433.072 533.725 442.121 535.019 450.999C535.173 452.096 536.951 452.179 536.868 450.999Z" fill="white"/>
<path d="M611.054 391.988C603 396.129 595.338 400.988 588.164 406.504C590.347 402.489 593.118 398.819 596.386 395.615C597.066 394.858 596.216 393.592 595.285 394.183C590.573 397.695 587.196 402.693 585.705 408.361C580.363 412.33 563.662 426.578 560.522 429.547C561.648 422.649 564.506 416.145 568.831 410.64C569.341 409.965 568.577 409.121 567.9 409.713C564.902 412.559 562.509 415.976 560.864 419.76C559.218 423.544 558.353 427.619 558.32 431.743C549.883 439.95 542.115 448.812 535.089 458.245C534.325 459.258 536.107 460.523 536.784 459.593C549.841 441.785 573.666 422.2 574.597 421.442C581.804 421.442 590.453 420.263 596.386 416.127C596.558 416.02 596.685 415.854 596.745 415.661C596.804 415.467 596.792 415.259 596.709 415.074C596.627 414.889 596.48 414.74 596.297 414.654C596.113 414.568 595.904 414.551 595.708 414.606C589.535 416.719 583.217 418.383 576.802 419.585C592.061 406.504 605.966 399.498 612.325 394.436C613.427 393.435 612.322 391.489 611.054 391.988Z" fill="white"/>
<path d="M552.214 448.973C559.984 449.434 567.744 447.923 574.767 444.582C575.614 444.16 575.02 442.728 574.089 442.984C566.937 445.048 559.617 446.488 552.214 447.289C552.009 447.317 551.822 447.417 551.687 447.572C551.551 447.727 551.476 447.925 551.476 448.131C551.476 448.336 551.551 448.535 551.687 448.689C551.822 448.844 552.009 448.945 552.214 448.973Z" fill="white"/>
<path d="M362.895 109.672C362.821 109.45 362.679 109.258 362.489 109.122C362.298 108.986 362.07 108.912 361.836 108.912C361.602 108.912 361.373 108.986 361.183 109.122C360.993 109.258 360.851 109.45 360.776 109.672C359.842 112.963 359.081 180.656 358.654 194.92C353.739 194.159 304.649 195.341 293.804 196.198C294.228 189.362 290.915 124.607 288.378 111.036C299.146 111.202 349.081 112.049 353.916 111.202C355.441 110.95 354.934 108.841 353.576 108.671C348.404 108.08 297.714 108.08 286.597 108.924C286.344 108.93 286.102 109.029 285.918 109.202C285.734 109.375 285.62 109.61 285.599 109.861C285.578 110.112 285.651 110.362 285.803 110.563C285.956 110.764 286.178 110.902 286.426 110.95C286.343 125.131 289.563 189.867 290.327 196.959C290.342 197.275 290.444 197.581 290.622 197.843C290.8 198.106 291.047 198.314 291.336 198.446C291.625 198.578 291.945 198.628 292.261 198.592C292.577 198.555 292.876 198.432 293.127 198.237C304.668 198.768 357.999 197.799 359.001 196.802C359.512 197.224 360.526 197.138 360.606 196.294C363.149 182.091 364.074 112.884 362.895 109.672Z" fill="white"/>
<path d="M182.563 169.684C177.555 169.556 157.201 171.032 152.212 171.707C151.966 171.719 151.727 171.783 151.509 171.896C151.29 172.008 151.099 172.165 150.947 172.357C150.795 172.549 150.686 172.771 150.627 173.008C150.568 173.246 150.561 173.493 150.606 173.733C153.997 198.295 156.385 223.361 157.303 248.092C157.306 248.243 157.345 248.391 157.418 248.524C157.491 248.656 157.595 248.769 157.722 248.852C157.848 248.935 157.993 248.986 158.144 249.001C158.295 249.016 158.447 248.993 158.588 248.936C162.375 249.065 166.163 248.724 169.866 247.923C170.88 247.67 170.543 246.325 169.609 246.235C166.122 246.011 162.62 246.21 159.182 246.827C158.417 222.687 157.063 198.633 154.01 174.663C158.674 174.155 178.174 173.481 182.903 172.046C183.188 171.969 183.435 171.792 183.598 171.546C183.76 171.301 183.827 171.005 183.785 170.715C183.743 170.424 183.595 170.158 183.37 169.968C183.145 169.778 182.858 169.677 182.563 169.684Z" fill="white"/>
<path d="M403.844 235.701C398.703 234.932 393.477 234.904 388.328 235.618C387.651 223.042 385.786 170.626 385.362 168.182C389.346 168.268 393.417 168.268 397.401 168.012C397.659 168.012 397.907 167.91 398.09 167.728C398.273 167.546 398.375 167.299 398.375 167.042C398.375 166.785 398.273 166.538 398.09 166.356C397.907 166.174 397.659 166.072 397.401 166.072C392.739 165.567 387.991 165.567 383.243 165.311C380.7 165.228 382.055 167.59 382.055 167.677C382.055 167.763 385.192 224.732 385.025 237.392C385.04 237.835 385.223 238.256 385.538 238.569C385.852 238.883 386.275 239.067 386.72 239.083C392.316 238.913 397.995 238.913 403.507 238.236C404.862 237.964 405.369 236.021 403.844 235.701Z" fill="white"/>
<path d="M445.133 152.463C435.046 136.429 412.747 143.265 405.626 158.287C402.151 166.569 401.467 175.75 403.677 184.453C405.116 191.036 408.763 199.647 416.053 201.67C416.394 204.866 416.901 208.17 417.411 211.462C420.593 232.473 444.058 236.845 455.054 224.039C461.243 218.551 463.362 210.197 463.956 201.756C468.027 200.321 470.74 194.328 472.094 190.698C481.819 163.451 461.757 147.644 445.133 152.463ZM445.727 210.871C445.304 213.402 438.343 216.525 433.094 213.489C431.91 212.811 432.927 211.04 434.199 211.632C435.906 212.276 437.767 212.403 439.547 211.998C441.326 211.592 442.946 210.672 444.202 209.353C444.88 208.592 445.897 210.11 445.727 210.871ZM460.649 208.087C459.943 206.408 458.868 204.907 457.504 203.695C456.14 202.483 454.52 201.59 452.765 201.082C448.912 200.008 442.703 202.459 439.708 202.939C437.926 199.982 439.541 196.016 440.048 192.555C440.218 191.375 438.52 190.784 438.183 192.05C436.861 195.548 436.367 199.303 436.741 203.022C434.96 202.769 433.264 202.008 431.486 201.743C429.788 201.485 428.054 201.593 426.402 202.059C424.749 202.525 423.216 203.338 421.906 204.444C420.721 205.489 419.89 206.875 419.53 208.41C417.649 200.673 416.71 192.739 416.731 184.779C421.819 184.101 441.49 177.351 443.949 168.479C445.233 175.315 458.614 181.308 462.685 182.404C462.685 183.018 460.903 207.157 460.649 208.087Z" fill="white"/>
<path d="M624.535 360.027C612.833 361.21 601.898 370.155 592.909 376.992C586.469 381.888 567.476 396.235 564.015 397.766C546.38 405.436 554.943 382.658 550.958 378.689C534.264 361.724 503.99 443.249 500.767 459.21C500.6 459.884 501.701 460.223 501.871 459.549C509.576 432.539 534.341 376.662 547.822 380.968C551.129 381.984 547.738 393.291 549.263 397.587C556.214 417.927 599.025 376.493 610.476 369.65C629.806 358.17 637.444 370.83 635.148 377.666C630.994 390.159 599.542 409.655 600.132 420.205C600.813 432.35 615.818 424.763 616.326 428.646C617.931 441.9 588.941 460.718 576.648 467.558C574.953 468.485 576.478 471.019 578.176 470.175C590.723 464.01 626.84 440.884 618.785 425.354C617.006 421.81 605.474 427.889 604.116 419.783C603.015 413.203 633.283 393.113 638.468 380.536C643.662 367.621 634.853 358.947 624.535 360.027Z" fill="white"/>
<path d="M578.073 297.215C577.367 290.887 569.511 267.083 565.611 262.698C564.763 261.768 562.811 262.781 563.405 263.976C565.864 269.886 574.597 293.7 575.107 299.932C575.955 311.326 575.361 327.025 567.983 336.396C559.675 346.942 523.644 342.219 501.685 319.428C500.739 310.666 499.323 301.96 497.444 293.348C497.277 292.421 495.839 292.843 496.002 293.77C501.545 328.553 500.914 364.034 494.137 398.6C487.187 400.371 469.298 407.376 445.22 406.871C447.169 396.491 455.731 309.469 444.539 257.814C444.286 256.718 442.674 256.718 442.761 257.814C447.122 307.358 446.836 357.198 441.907 406.689C434.953 406.184 425.12 405.171 419.694 404.158C411.989 386.855 390.781 370.226 390.614 370.059C386.075 359.287 380.718 348.875 374.588 338.914C368.655 329.377 371.377 316.884 372.128 305.742C372.893 293.843 373.063 279.41 365.178 269.451C362.289 265.737 357.21 258.815 341.1 257.802C336.713 257.651 332.416 259.057 328.974 261.768C313.545 256.453 298.963 265.229 292.433 279.324C283.861 297.736 291.178 319.485 285.56 330.048C284.118 332.832 272.673 348.617 270.724 354.949C269.312 359.557 266.095 371.21 269.79 374.275C244.107 395.714 239.933 418.588 237.066 431.586C228.247 471.678 250.8 496.575 264.451 499.867C265.976 500.205 267.247 497.84 265.636 497.166C240.88 486.194 237.403 456.314 241.05 432.683C247.577 389.891 285.996 367.608 290.648 365.412C299.532 361.257 309.04 358.577 318.794 357.48C318.695 358.545 318.725 359.618 318.88 360.676C318.897 360.894 318.988 361.101 319.139 361.26C319.29 361.42 319.491 361.523 319.709 361.553C319.928 361.583 320.149 361.538 320.338 361.425C320.526 361.311 320.67 361.137 320.746 360.932C321.918 356.819 322.353 352.532 322.03 348.269C331.273 354.683 343.479 350.043 346.615 348.186C346.393 352.461 347.331 356.717 349.331 360.507C349.839 361.267 351.28 361.015 351.197 360.002C351.026 358.567 350.77 357.125 350.516 355.696C352.687 355.499 354.87 355.472 357.046 355.613C370.395 360.176 382.699 367.34 393.238 376.686C403.777 386.033 412.34 397.375 418.429 410.052C442.674 461.188 413 490.911 406.473 494.456C404.692 495.469 405.966 497.917 407.828 497.578C419.19 495.638 429.958 470.485 430.211 469.134C443.268 468.881 496.937 468.207 496.937 468.207C496.937 468.207 496.513 408.786 496.343 403.046C499.553 395.113 505.669 355.022 502.192 322.359C526.357 346.92 544.075 345.05 554.079 345.316C577.733 345.83 580.032 314.781 578.073 297.215ZM310.838 321.607C310.031 321.822 309.185 321.85 308.366 321.688C307.547 321.526 306.775 321.179 306.112 320.673C305.449 320.168 304.911 319.517 304.539 318.772C304.168 318.027 303.974 317.207 303.971 316.376C304.157 314.672 304.939 313.088 306.179 311.9C307.418 310.712 309.038 309.995 310.755 309.875C310.698 307.37 311.236 304.888 312.325 302.629C313.414 300.37 315.023 298.399 317.022 296.877C320.075 294.598 323.889 293.502 327.109 291.475C328.8 290.588 330.179 289.207 331.058 287.517C331.937 285.826 332.276 283.909 332.027 282.021C333.273 288.225 341.424 290.619 345.338 292.827C347.305 294.175 349.075 295.788 350.596 297.621C354.185 301.656 356.33 306.761 356.696 312.138C357.112 311.965 357.567 311.905 358.013 311.965C358.46 312.024 358.883 312.201 359.239 312.476C364.375 316.558 362.616 323.551 358.308 324.123C357.547 324.208 356.779 324.208 356.019 324.123C355.508 329.019 348.898 346.575 337.026 347.757C333.475 348.193 329.871 347.816 326.489 346.655C323.107 345.494 320.035 343.579 317.51 341.057C314.984 338.534 313.07 335.471 311.913 332.101C310.757 328.73 310.39 325.141 310.838 321.607Z" fill="white"/>
<path d="M568.747 467.286C568.498 466.926 568.149 466.646 567.742 466.482C567.335 466.317 566.889 466.274 566.458 466.359C555.35 465.516 453.018 466.698 430.298 467.456C430.062 467.456 429.835 467.549 429.668 467.715C429.501 467.882 429.407 468.107 429.407 468.343C429.407 468.578 429.501 468.803 429.668 468.97C429.835 469.136 430.062 469.23 430.298 469.23C453.018 469.987 554.926 471.086 565.778 470.326C576.883 484.59 627.074 548.146 632.924 554.222C556.875 555.574 57.8447 551.86 36.0556 552.624C46.7367 538.443 101.76 467.711 101.76 467.545C122.108 468.641 219.354 469.143 224.613 467.798C226.138 467.376 226.308 464.845 224.613 464.602C219.271 463.758 121.09 465.445 100.152 465.362C98.1162 465.362 41.2276 538.203 30.6268 553.058C30.5433 553.142 28.5946 555.503 32.0683 555.673C88.5363 557.782 595.281 559.387 636.06 558.549C637.588 558.38 640.301 556.862 639.03 555.005C630.13 540.802 578.947 480.198 568.747 467.286Z" fill="white"/>
</svg>
